<?xml version="1.0" encoding="UTF-8" standalone="no"?>
<!DOCTYPE svg PUBLIC "-//W3C//DTD SVG 1.1//EN"
 "http://www.w3.org/Graphics/SVG/1.1/DTD/svg11.dtd">
<!-- Generated by graphviz version 2.40.1 (20161225.0304)
 -->
<!-- Title: G Pages: 1 -->
<svg width="531pt" height="373pt"
 viewBox="0.00 0.00 530.90 373.26" xmlns="http://www.w3.org/2000/svg" xmlns:xlink="http://www.w3.org/1999/xlink">
<g id="graph0" class="graph" transform="scale(1 1) rotate(0) translate(4 369.262)">
<title>G</title><style>.edge>path:hover{stroke-width:8}</style>
<polygon fill="#ffffff" stroke="transparent" points="-4,4 -4,-369.262 526.9031,-369.262 526.9031,4 -4,4"/>
<!-- biobricks -->
<g id="node1" class="node">
<title>biobricks</title><style>.edge>path:hover{stroke-width:8}</style>
<ellipse fill="#b62020" stroke="#000000" cx="267.1838" cy="-111.9828" rx="32.9303" ry="18"/>
<text text-anchor="middle" x="267.1838" y="-109.4828" font-family="Helvetica,sans-Serif" font-size="10.00" fill="#ffffff">biobricks</text>
</g>
<!-- biobricks_bblib -->
<g id="node2" class="node">
<title>biobricks_bblib</title><style>.edge>path:hover{stroke-width:8}</style>
<ellipse fill="#f31616" stroke="#000000" cx="322.1838" cy="-344.0488" rx="41.9398" ry="21.4286"/>
<text text-anchor="middle" x="322.1838" y="-347.0488" font-family="Helvetica,sans-Serif" font-size="10.00" fill="#ffffff">biobricks.</text>
<text text-anchor="middle" x="322.1838" y="-336.0488" font-family="Helvetica,sans-Serif" font-size="10.00" fill="#ffffff">bblib</text>
</g>
<!-- biobricks_bblib&#45;&gt;biobricks -->
<g id="edge1" class="edge">
<title>biobricks_bblib&#45;&gt;biobricks</title><style>.edge>path:hover{stroke-width:8}</style>
<path fill="none" stroke="#000000" d="M197.1838,-265.6224C175.1124,-226.3125 195.661,-206.1228 216.1838,-165.9828 222.2375,-154.1424 231.6899,-143.0786 240.8205,-134.0871"/>
<polygon fill="#f31616" stroke="#000000" points="243.4273,-136.4409 248.3327,-127.0501 238.6418,-131.3322 243.4273,-136.4409"/>
</g>
<!-- biobricks_initialize -->
<g id="node3" class="node">
<title>biobricks_initialize</title><style>.edge>path:hover{stroke-width:8}</style>
<ellipse fill="#b83d3d" stroke="#000000" cx="267.1838" cy="-187.196" rx="41.9398" ry="21.4286"/>
<text text-anchor="middle" x="267.1838" y="-190.196" font-family="Helvetica,sans-Serif" font-size="10.00" fill="#ffffff">biobricks.</text>
<text text-anchor="middle" x="267.1838" y="-179.196" font-family="Helvetica,sans-Serif" font-size="10.00" fill="#ffffff">initialize</text>
</g>
<!-- biobricks_bblib&#45;&gt;biobricks_initialize -->
<g id="edge2" class="edge">
<title>biobricks_bblib&#45;&gt;biobricks_initialize</title><style>.edge>path:hover{stroke-width:8}</style>
<path fill="none" stroke="#000000" d="M197.1838,-265.6224C184.8241,-243.6094 206.2594,-222.4873 228.5765,-207.7205"/>
<polygon fill="#f31616" stroke="#000000" points="230.4843,-210.6555 237.1044,-202.3835 226.7707,-204.7217 230.4843,-210.6555"/>
</g>
<!-- biobricks_load -->
<g id="node4" class="node">
<title>biobricks_load</title><style>.edge>path:hover{stroke-width:8}</style>
<ellipse fill="#a83838" stroke="#000000" cx="124.1838" cy="-187.196" rx="45.1548" ry="18"/>
<text text-anchor="middle" x="124.1838" y="-184.696" font-family="Helvetica,sans-Serif" font-size="10.00" fill="#ffffff">biobricks.load</text>
</g>
<!-- biobricks_bblib&#45;&gt;biobricks_load -->
<g id="edge3" class="edge">
<title>biobricks_bblib&#45;&gt;biobricks_load</title><style>.edge>path:hover{stroke-width:8}</style>
<path fill="none" stroke="#000000" d="M286.7884,-332.6617C257.0079,-320.999 216.3112,-299.689 197.1838,-265.6224"/>
<path fill="none" stroke="#000000" d="M197.1838,-265.6224C185.4737,-244.7663 167.1098,-225.0753 151.7308,-210.6407"/>
<polygon fill="#f31616" stroke="#000000" points="153.7566,-207.751 144.0117,-203.5932 149.0369,-212.9205 153.7566,-207.751"/>
</g>
<!-- biobricks_pull -->
<g id="node5" class="node">
<title>biobricks_pull</title><style>.edge>path:hover{stroke-width:8}</style>
<ellipse fill="#ac2b2b" stroke="#000000" cx="409.1838" cy="-187.196" rx="43.6222" ry="18"/>
<text text-anchor="middle" x="409.1838" y="-184.696" font-family="Helvetica,sans-Serif" font-size="10.00" fill="#ffffff">biobricks.pull</text>
</g>
<!-- biobricks_bblib&#45;&gt;biobricks_pull -->
<g id="edge4" class="edge">
<title>biobricks_bblib&#45;&gt;biobricks_pull</title><style>.edge>path:hover{stroke-width:8}</style>
<path fill="none" stroke="#000000" d="M354.6029,-330.2719C378.959,-317.5075 408.2835,-295.9085 409.1838,-265.6224"/>
<path fill="none" stroke="#000000" d="M409.1838,-265.6224C409.6786,-248.976 409.7006,-230.3334 409.5886,-215.4021"/>
<polygon fill="#f31616" stroke="#000000" points="413.0872,-215.2322 409.4882,-205.2673 406.0875,-215.3015 413.0872,-215.2322"/>
</g>
<!-- biobricks_token -->
<g id="node7" class="node">
<title>biobricks_token</title><style>.edge>path:hover{stroke-width:8}</style>
<ellipse fill="#d92626" stroke="#000000" cx="329.1838" cy="-265.6224" rx="41.9398" ry="21.4286"/>
<text text-anchor="middle" x="329.1838" y="-268.6224" font-family="Helvetica,sans-Serif" font-size="10.00" fill="#ffffff">biobricks.</text>
<text text-anchor="middle" x="329.1838" y="-257.6224" font-family="Helvetica,sans-Serif" font-size="10.00" fill="#ffffff">token</text>
</g>
<!-- biobricks_bblib&#45;&gt;biobricks_token -->
<g id="edge5" class="edge">
<title>biobricks_bblib&#45;&gt;biobricks_token</title><style>.edge>path:hover{stroke-width:8}</style>
<path fill="none" stroke="#000000" d="M324.0965,-322.6184C324.7987,-314.7511 325.6091,-305.6723 326.3737,-297.1059"/>
<polygon fill="#f31616" stroke="#000000" points="329.8703,-297.2984 327.2733,-287.0268 322.898,-296.676 329.8703,-297.2984"/>
</g>
<!-- biobricks_initialize&#45;&gt;biobricks -->
<g id="edge6" class="edge">
<title>biobricks_initialize&#45;&gt;biobricks</title><style>.edge>path:hover{stroke-width:8}</style>
<path fill="none" stroke="#000000" d="M267.1838,-165.8441C267.1838,-157.9045 267.1838,-148.7679 267.1838,-140.3014"/>
<polygon fill="#b83d3d" stroke="#000000" points="270.6839,-140.0759 267.1838,-130.0759 263.6839,-140.076 270.6839,-140.0759"/>
</g>
<!-- biobricks_load&#45;&gt;biobricks -->
<g id="edge7" class="edge">
<title>biobricks_load&#45;&gt;biobricks</title><style>.edge>path:hover{stroke-width:8}</style>
<path fill="none" stroke="#000000" d="M151.7556,-172.6941C175.2167,-160.3544 208.9801,-142.5959 233.9342,-129.4709"/>
<polygon fill="#a83838" stroke="#000000" points="235.8057,-132.4412 243.0269,-124.6885 232.5471,-126.2459 235.8057,-132.4412"/>
</g>
<!-- biobricks_pull&#45;&gt;biobricks -->
<g id="edge8" class="edge">
<title>biobricks_pull&#45;&gt;biobricks</title><style>.edge>path:hover{stroke-width:8}</style>
<path fill="none" stroke="#000000" d="M382.1404,-172.8719C358.8793,-160.5512 325.2403,-142.7336 300.3568,-129.5535"/>
<polygon fill="#ac2b2b" stroke="#000000" points="301.7637,-126.3381 291.2885,-124.7503 298.4872,-132.5239 301.7637,-126.3381"/>
</g>
<!-- biobricks_tests_test_init -->
<g id="node6" class="node">
<title>biobricks_tests_test_init</title><style>.edge>path:hover{stroke-width:8}</style>
<ellipse fill="#a44646" stroke="#000000" cx="481.1838" cy="-28.9914" rx="41.9398" ry="28.9828"/>
<text text-anchor="middle" x="481.1838" y="-37.4914" font-family="Helvetica,sans-Serif" font-size="10.00" fill="#ffffff">biobricks.</text>
<text text-anchor="middle" x="481.1838" y="-26.4914" font-family="Helvetica,sans-Serif" font-size="10.00" fill="#ffffff">tests.</text>
<text text-anchor="middle" x="481.1838" y="-15.4914" font-family="Helvetica,sans-Serif" font-size="10.00" fill="#ffffff">test_init</text>
</g>
<!-- biobricks_pull&#45;&gt;biobricks_tests_test_init -->
<g id="edge9" class="edge">
<title>biobricks_pull&#45;&gt;biobricks_tests_test_init</title><style>.edge>path:hover{stroke-width:8}</style>
<path fill="none" stroke="#000000" d="M433.653,-172.2618C452.1226,-159.1341 475.2617,-138.0722 481.1838,-111.9828"/>
<path fill="none" stroke="#000000" d="M481.1838,-111.9828C484.3607,-97.9868 485.0653,-82.3178 484.7406,-68.3966"/>
<polygon fill="#ac2b2b" stroke="#000000" points="488.2271,-67.9947 484.3156,-58.1483 481.2331,-68.2848 488.2271,-67.9947"/>
</g>
<!-- biobricks_token&#45;&gt;biobricks -->
<g id="edge10" class="edge">
<title>biobricks_token&#45;&gt;biobricks</title><style>.edge>path:hover{stroke-width:8}</style>
<path fill="none" stroke="#000000" d="M330.648,-244.3639C331.2335,-223.4507 329.8046,-191.0962 318.1838,-165.9828 312.5991,-153.914 303.2379,-142.8059 294.049,-133.8428"/>
<polygon fill="#d92626" stroke="#000000" points="296.1822,-131.0491 286.4574,-126.8444 291.4376,-136.1958 296.1822,-131.0491"/>
</g>
<!-- biobricks_token&#45;&gt;biobricks_initialize -->
<g id="edge11" class="edge">
<title>biobricks_token&#45;&gt;biobricks_initialize</title><style>.edge>path:hover{stroke-width:8}</style>
<path fill="none" stroke="#000000" d="M313.5385,-245.8321C306.1224,-236.451 297.1376,-225.0859 289.0602,-214.8683"/>
<polygon fill="#d92626" stroke="#000000" points="291.7713,-212.6541 282.824,-206.9799 286.28,-216.9953 291.7713,-212.6541"/>
</g>
<!-- biobricks_token&#45;&gt;biobricks_pull -->
<g id="edge12" class="edge">
<title>biobricks_token&#45;&gt;biobricks_pull</title><style>.edge>path:hover{stroke-width:8}</style>
<path fill="none" stroke="#000000" d="M348.5495,-246.6375C359.4744,-235.9276 373.227,-222.4454 384.8719,-211.0296"/>
<polygon fill="#d92626" stroke="#000000" points="387.4781,-213.376 392.1689,-203.8762 382.5777,-208.3773 387.4781,-213.376"/>
</g>
<!-- dvc -->
<g id="node8" class="node">
<title>dvc</title><style>.edge>path:hover{stroke-width:8}</style>
<ellipse fill="#80cc33" stroke="#000000" cx="409.1838" cy="-344.0488" rx="27" ry="18"/>
<text text-anchor="middle" x="409.1838" y="-341.5488" font-family="Helvetica,sans-Serif" font-size="10.00" fill="#000000">dvc</text>
</g>
<!-- dvc&#45;&gt;biobricks_pull -->
<g id="edge13" class="edge">
<title>dvc&#45;&gt;biobricks_pull</title><style>.edge>path:hover{stroke-width:8}</style>
<path fill="none" stroke="#000000" d="M408.8793,-325.9774C408.6841,-310.0787 408.5688,-286.3091 409.1838,-265.6224"/>
</g>
<!-- dvc_api -->
<g id="node9" class="node">
<title>dvc_api</title><style>.edge>path:hover{stroke-width:8}</style>
<ellipse fill="#80b34c" stroke="#000000" cx="482.1838" cy="-344.0488" rx="28.0137" ry="18"/>
<text text-anchor="middle" x="482.1838" y="-341.5488" font-family="Helvetica,sans-Serif" font-size="10.00" fill="#000000">dvc.api</text>
</g>
<!-- dvc_api&#45;&gt;biobricks_pull -->
<g id="edge14" class="edge">
<title>dvc_api&#45;&gt;biobricks_pull</title><style>.edge>path:hover{stroke-width:8}</style>
<path fill="none" stroke="#000000" d="M459.9247,-332.5173C438.1242,-319.437 408.2829,-295.9291 409.1838,-265.6224"/>
</g>
<!-- pyarrow -->
<g id="node10" class="node">
<title>pyarrow</title><style>.edge>path:hover{stroke-width:8}</style>
<ellipse fill="#40bfc0" stroke="#000000" cx="124.1838" cy="-344.0488" rx="30.0436" ry="18"/>
<text text-anchor="middle" x="124.1838" y="-341.5488" font-family="Helvetica,sans-Serif" font-size="10.00" fill="#000000">pyarrow</text>
</g>
<!-- pyarrow&#45;&gt;biobricks_load -->
<g id="edge15" class="edge">
<title>pyarrow&#45;&gt;biobricks_load</title><style>.edge>path:hover{stroke-width:8}</style>
<path fill="none" stroke="#000000" d="M121.6733,-325.9782C120.0241,-309.8747 119.0145,-285.8028 124.1838,-265.6224"/>
</g>
<!-- pyarrow_parquet -->
<g id="node11" class="node">
<title>pyarrow_parquet</title><style>.edge>path:hover{stroke-width:8}</style>
<ellipse fill="#53b6b6" stroke="#000000" cx="38.1838" cy="-344.0488" rx="38.3684" ry="21.4286"/>
<text text-anchor="middle" x="38.1838" y="-347.0488" font-family="Helvetica,sans-Serif" font-size="10.00" fill="#000000">pyarrow.</text>
<text text-anchor="middle" x="38.1838" y="-336.0488" font-family="Helvetica,sans-Serif" font-size="10.00" fill="#000000">parquet</text>
</g>
<!-- pyarrow_parquet&#45;&gt;biobricks_load -->
<g id="edge16" class="edge">
<title>pyarrow_parquet&#45;&gt;biobricks_load</title><style>.edge>path:hover{stroke-width:8}</style>
<path fill="none" stroke="#000000" d="M66.7811,-329.6849C88.805,-316.5713 116.7127,-294.7886 124.1838,-265.6224"/>
<path fill="none" stroke="#000000" d="M124.1838,-265.6224C128.3434,-249.3834 128.5021,-230.6247 127.5461,-215.5257"/>
<polygon fill="#53b6b6" stroke="#000000" points="131.0098,-214.9426 126.6942,-205.2665 124.0338,-215.5219 131.0098,-214.9426"/>
</g>
<!-- pytest -->
<g id="node12" class="node">
<title>pytest</title><style>.edge>path:hover{stroke-width:8}</style>
<ellipse fill="#8553b6" stroke="#000000" cx="481.1838" cy="-265.6224" rx="27" ry="18"/>
<text text-anchor="middle" x="481.1838" y="-263.1224" font-family="Helvetica,sans-Serif" font-size="10.00" fill="#ffffff">pytest</text>
</g>
<!-- pytest&#45;&gt;biobricks_tests_test_init -->
<g id="edge17" class="edge">
<title>pytest&#45;&gt;biobricks_tests_test_init</title><style>.edge>path:hover{stroke-width:8}</style>
<path fill="none" stroke="#000000" d="M478.6057,-247.3569C475.0727,-218.2755 470.3197,-159.8445 481.1838,-111.9828"/>
</g>
</g>
</svg>
