<?xml version="1.0" encoding="UTF-8" standalone="no"?>
<!DOCTYPE svg PUBLIC "-//W3C//DTD SVG 1.1//EN"
 "http://www.w3.org/Graphics/SVG/1.1/DTD/svg11.dtd">
<!-- Generated by graphviz version 2.40.1 (20161225.0304)
 -->
<!-- Title: G Pages: 1 -->
<svg width="508pt" height="301pt"
 viewBox="0.00 0.00 508.48 301.26" xmlns="http://www.w3.org/2000/svg" xmlns:xlink="http://www.w3.org/1999/xlink">
<g id="graph0" class="graph" transform="scale(1 1) rotate(0) translate(4 297.262)">
<title>G</title><style>.edge>path:hover{stroke-width:8}</style>
<polygon fill="#ffffff" stroke="transparent" points="-4,4 -4,-297.262 504.4752,-297.262 504.4752,4 -4,4"/>
<!-- biobricks -->
<g id="node1" class="node">
<title>biobricks</title><style>.edge>path:hover{stroke-width:8}</style>
<ellipse fill="#b62020" stroke="#000000" cx="142.7559" cy="-28.9914" rx="32.9303" ry="18"/>
<text text-anchor="middle" x="142.7559" y="-26.4914" font-family="Helvetica,sans-Serif" font-size="10.00" fill="#ffffff">biobricks</text>
</g>
<!-- biobricks_bblib -->
<g id="node2" class="node">
<title>biobricks_bblib</title><style>.edge>path:hover{stroke-width:8}</style>
<ellipse fill="#f31616" stroke="#000000" cx="53.7559" cy="-272.0488" rx="41.9398" ry="21.4286"/>
<text text-anchor="middle" x="53.7559" y="-275.0488" font-family="Helvetica,sans-Serif" font-size="10.00" fill="#ffffff">biobricks.</text>
<text text-anchor="middle" x="53.7559" y="-264.0488" font-family="Helvetica,sans-Serif" font-size="10.00" fill="#ffffff">bblib</text>
</g>
<!-- biobricks_bblib&#45;&gt;biobricks -->
<g id="edge1" class="edge">
<title>biobricks_bblib&#45;&gt;biobricks</title><style>.edge>path:hover{stroke-width:8}</style>
<path fill="none" stroke="#000000" d="M33.7812,-253.2308C20.2754,-238.534 4.5752,-216.7762 2.7559,-193.6224"/>
<path fill="none" stroke="#000000" d="M2.7559,-193.6224C-.7755,-148.6787 -4.919,-130.3263 21.7559,-93.9828 41.6102,-66.9321 76.1977,-49.9827 103.3221,-40.2031"/>
<polygon fill="#f31616" stroke="#000000" points="104.6048,-43.4636 112.9366,-36.919 102.3421,-36.8394 104.6048,-43.4636"/>
</g>
<!-- biobricks_initialize -->
<g id="node3" class="node">
<title>biobricks_initialize</title><style>.edge>path:hover{stroke-width:8}</style>
<ellipse fill="#b83d3d" stroke="#000000" cx="72.7559" cy="-115.196" rx="41.9398" ry="21.4286"/>
<text text-anchor="middle" x="72.7559" y="-118.196" font-family="Helvetica,sans-Serif" font-size="10.00" fill="#ffffff">biobricks.</text>
<text text-anchor="middle" x="72.7559" y="-107.196" font-family="Helvetica,sans-Serif" font-size="10.00" fill="#ffffff">initialize</text>
</g>
<!-- biobricks_bblib&#45;&gt;biobricks_initialize -->
<g id="edge2" class="edge">
<title>biobricks_bblib&#45;&gt;biobricks_initialize</title><style>.edge>path:hover{stroke-width:8}</style>
<path fill="none" stroke="#000000" d="M2.7559,-193.6224C.9335,-170.4289 18.2832,-150.8874 36.1632,-137.112"/>
<polygon fill="#f31616" stroke="#000000" points="38.294,-139.8905 44.3487,-131.1961 34.1937,-134.2171 38.294,-139.8905"/>
</g>
<!-- biobricks_load -->
<g id="node4" class="node">
<title>biobricks_load</title><style>.edge>path:hover{stroke-width:8}</style>
<ellipse fill="#a83838" stroke="#000000" cx="215.7559" cy="-115.196" rx="45.1548" ry="18"/>
<text text-anchor="middle" x="215.7559" y="-112.696" font-family="Helvetica,sans-Serif" font-size="10.00" fill="#ffffff">biobricks.load</text>
</g>
<!-- biobricks_bblib&#45;&gt;biobricks_load -->
<g id="edge3" class="edge">
<title>biobricks_bblib&#45;&gt;biobricks_load</title><style>.edge>path:hover{stroke-width:8}</style>
<path fill="none" stroke="#000000" d="M81.3393,-255.9518C103.1584,-241.9589 132.9789,-219.8436 151.7559,-193.6224"/>
<path fill="none" stroke="#000000" d="M151.7559,-193.6224C164.9645,-175.1771 181.1263,-155.3916 193.904,-140.3081"/>
<polygon fill="#f31616" stroke="#000000" points="196.7817,-142.3278 200.6143,-132.4504 191.4586,-137.7819 196.7817,-142.3278"/>
</g>
<!-- biobricks_pull -->
<g id="node5" class="node">
<title>biobricks_pull</title><style>.edge>path:hover{stroke-width:8}</style>
<ellipse fill="#a83838" stroke="#000000" cx="322.7559" cy="-115.196" rx="43.6222" ry="18"/>
<text text-anchor="middle" x="322.7559" y="-112.696" font-family="Helvetica,sans-Serif" font-size="10.00" fill="#ffffff">biobricks.pull</text>
</g>
<!-- biobricks_bblib&#45;&gt;biobricks_pull -->
<g id="edge4" class="edge">
<title>biobricks_bblib&#45;&gt;biobricks_pull</title><style>.edge>path:hover{stroke-width:8}</style>
<path fill="none" stroke="#000000" d="M84.5878,-257.264C107.3169,-246.133 138.832,-230.2115 165.7559,-214.8356 210.2792,-189.4087 259.9867,-157.1806 291.3089,-136.377"/>
<polygon fill="#f31616" stroke="#000000" points="293.6447,-139.0264 300.0245,-130.5677 289.7623,-133.2017 293.6447,-139.0264"/>
</g>
<!-- biobricks_token -->
<g id="node7" class="node">
<title>biobricks_token</title><style>.edge>path:hover{stroke-width:8}</style>
<ellipse fill="#cc3333" stroke="#000000" cx="72.7559" cy="-193.6224" rx="41.9398" ry="21.4286"/>
<text text-anchor="middle" x="72.7559" y="-196.6224" font-family="Helvetica,sans-Serif" font-size="10.00" fill="#ffffff">biobricks.</text>
<text text-anchor="middle" x="72.7559" y="-185.6224" font-family="Helvetica,sans-Serif" font-size="10.00" fill="#ffffff">token</text>
</g>
<!-- biobricks_bblib&#45;&gt;biobricks_token -->
<g id="edge5" class="edge">
<title>biobricks_bblib&#45;&gt;biobricks_token</title><style>.edge>path:hover{stroke-width:8}</style>
<path fill="none" stroke="#000000" d="M58.9477,-250.6184C60.8905,-242.5995 63.1381,-233.3218 65.2484,-224.6111"/>
<polygon fill="#f31616" stroke="#000000" points="68.6831,-225.2983 67.6361,-214.7553 61.8799,-223.65 68.6831,-225.2983"/>
</g>
<!-- biobricks_initialize&#45;&gt;biobricks -->
<g id="edge6" class="edge">
<title>biobricks_initialize&#45;&gt;biobricks</title><style>.edge>path:hover{stroke-width:8}</style>
<path fill="none" stroke="#000000" d="M88.9913,-95.2022C99.0921,-82.7631 112.1532,-66.6784 122.8726,-53.4775"/>
<polygon fill="#b83d3d" stroke="#000000" points="125.6103,-55.6584 129.197,-45.6891 120.1762,-51.2458 125.6103,-55.6584"/>
</g>
<!-- biobricks_load&#45;&gt;biobricks -->
<g id="edge7" class="edge">
<title>biobricks_load&#45;&gt;biobricks</title><style>.edge>path:hover{stroke-width:8}</style>
<path fill="none" stroke="#000000" d="M200.9833,-97.7512C190.187,-85.002 175.4033,-67.5441 163.4341,-53.41"/>
<polygon fill="#a83838" stroke="#000000" points="165.897,-50.9023 156.7635,-45.5328 160.555,-55.426 165.897,-50.9023"/>
</g>
<!-- biobricks_pull&#45;&gt;biobricks -->
<g id="edge8" class="edge">
<title>biobricks_pull&#45;&gt;biobricks</title><style>.edge>path:hover{stroke-width:8}</style>
<path fill="none" stroke="#000000" d="M294.2344,-101.5366C262.3389,-86.2614 210.7106,-61.5359 176.7462,-45.2698"/>
<polygon fill="#a83838" stroke="#000000" points="178.1968,-42.0839 167.666,-40.9212 175.1732,-48.3972 178.1968,-42.0839"/>
</g>
<!-- biobricks_tests_test_init -->
<g id="node6" class="node">
<title>biobricks_tests_test_init</title><style>.edge>path:hover{stroke-width:8}</style>
<ellipse fill="#ac4949" stroke="#000000" cx="458.7559" cy="-28.9914" rx="41.9398" ry="28.9828"/>
<text text-anchor="middle" x="458.7559" y="-37.4914" font-family="Helvetica,sans-Serif" font-size="10.00" fill="#ffffff">biobricks.</text>
<text text-anchor="middle" x="458.7559" y="-26.4914" font-family="Helvetica,sans-Serif" font-size="10.00" fill="#ffffff">tests.</text>
<text text-anchor="middle" x="458.7559" y="-15.4914" font-family="Helvetica,sans-Serif" font-size="10.00" fill="#ffffff">test_init</text>
</g>
<!-- biobricks_token&#45;&gt;biobricks -->
<g id="edge9" class="edge">
<title>biobricks_token&#45;&gt;biobricks</title><style>.edge>path:hover{stroke-width:8}</style>
<path fill="none" stroke="#000000" d="M93.9662,-175.2649C104.5617,-164.9184 116.614,-151.1355 123.7559,-136.4092 135.9002,-111.3681 140.3628,-79.68 141.9611,-57.2275"/>
<polygon fill="#cc3333" stroke="#000000" points="145.4682,-57.1981 142.5367,-47.017 138.4793,-56.8041 145.4682,-57.1981"/>
</g>
<!-- biobricks_token&#45;&gt;biobricks_initialize -->
<g id="edge10" class="edge">
<title>biobricks_token&#45;&gt;biobricks_initialize</title><style>.edge>path:hover{stroke-width:8}</style>
<path fill="none" stroke="#000000" d="M72.7559,-172.192C72.7559,-164.3247 72.7559,-155.2458 72.7559,-146.6795"/>
<polygon fill="#cc3333" stroke="#000000" points="76.256,-146.6004 72.7559,-136.6004 69.256,-146.6004 76.256,-146.6004"/>
</g>
<!-- dvc -->
<g id="node8" class="node">
<title>dvc</title><style>.edge>path:hover{stroke-width:8}</style>
<ellipse fill="#80cc33" stroke="#000000" cx="312.7559" cy="-272.0488" rx="27" ry="18"/>
<text text-anchor="middle" x="312.7559" y="-269.5488" font-family="Helvetica,sans-Serif" font-size="10.00" fill="#000000">dvc</text>
</g>
<!-- dvc&#45;&gt;biobricks_pull -->
<g id="edge11" class="edge">
<title>dvc&#45;&gt;biobricks_pull</title><style>.edge>path:hover{stroke-width:8}</style>
<path fill="none" stroke="#000000" d="M327.8764,-256.9057C341.0911,-241.8462 357.6127,-217.5892 353.7559,-193.6224"/>
<path fill="none" stroke="#000000" d="M353.7559,-193.6224C350.8746,-175.7176 343.524,-156.7786 336.7036,-141.9979"/>
<polygon fill="#80cc33" stroke="#000000" points="339.8361,-140.4358 332.3505,-132.9381 333.5266,-143.4675 339.8361,-140.4358"/>
</g>
<!-- dvc_api -->
<g id="node9" class="node">
<title>dvc_api</title><style>.edge>path:hover{stroke-width:8}</style>
<ellipse fill="#80b34c" stroke="#000000" cx="385.7559" cy="-272.0488" rx="28.0137" ry="18"/>
<text text-anchor="middle" x="385.7559" y="-269.5488" font-family="Helvetica,sans-Serif" font-size="10.00" fill="#000000">dvc.api</text>
</g>
<!-- dvc_api&#45;&gt;biobricks_pull -->
<g id="edge12" class="edge">
<title>dvc_api&#45;&gt;biobricks_pull</title><style>.edge>path:hover{stroke-width:8}</style>
<path fill="none" stroke="#000000" d="M376.1198,-254.9656C368.0626,-239.5107 357.3306,-215.836 353.7559,-193.6224"/>
</g>
<!-- pyarrow -->
<g id="node10" class="node">
<title>pyarrow</title><style>.edge>path:hover{stroke-width:8}</style>
<ellipse fill="#40bfc0" stroke="#000000" cx="237.7559" cy="-272.0488" rx="30.0436" ry="18"/>
<text text-anchor="middle" x="237.7559" y="-269.5488" font-family="Helvetica,sans-Serif" font-size="10.00" fill="#000000">pyarrow</text>
</g>
<!-- pyarrow&#45;&gt;biobricks_load -->
<g id="edge13" class="edge">
<title>pyarrow&#45;&gt;biobricks_load</title><style>.edge>path:hover{stroke-width:8}</style>
<path fill="none" stroke="#000000" d="M235.2322,-254.0558C231.4398,-227.0169 224.2366,-175.6607 219.7329,-143.5509"/>
<polygon fill="#40bfc0" stroke="#000000" points="223.1731,-142.8792 218.3179,-133.4623 216.2409,-143.8515 223.1731,-142.8792"/>
</g>
<!-- pyarrow_parquet -->
<g id="node11" class="node">
<title>pyarrow_parquet</title><style>.edge>path:hover{stroke-width:8}</style>
<ellipse fill="#53b6b6" stroke="#000000" cx="151.7559" cy="-272.0488" rx="38.3684" ry="21.4286"/>
<text text-anchor="middle" x="151.7559" y="-275.0488" font-family="Helvetica,sans-Serif" font-size="10.00" fill="#000000">pyarrow.</text>
<text text-anchor="middle" x="151.7559" y="-264.0488" font-family="Helvetica,sans-Serif" font-size="10.00" fill="#000000">parquet</text>
</g>
<!-- pyarrow_parquet&#45;&gt;biobricks_load -->
<g id="edge14" class="edge">
<title>pyarrow_parquet&#45;&gt;biobricks_load</title><style>.edge>path:hover{stroke-width:8}</style>
<path fill="none" stroke="#000000" d="M145.5655,-251.0437C141.8821,-233.9784 139.9443,-210.1167 151.7559,-193.6224"/>
</g>
<!-- pytest -->
<g id="node12" class="node">
<title>pytest</title><style>.edge>path:hover{stroke-width:8}</style>
<ellipse fill="#8553b6" stroke="#000000" cx="458.7559" cy="-272.0488" rx="27" ry="18"/>
<text text-anchor="middle" x="458.7559" y="-269.5488" font-family="Helvetica,sans-Serif" font-size="10.00" fill="#ffffff">pytest</text>
</g>
<!-- pytest&#45;&gt;biobricks_tests_test_init -->
<g id="edge15" class="edge">
<title>pytest&#45;&gt;biobricks_tests_test_init</title><style>.edge>path:hover{stroke-width:8}</style>
<path fill="none" stroke="#000000" d="M458.7559,-253.78C458.7559,-214.5528 458.7559,-121.5137 458.7559,-68.242"/>
<polygon fill="#8553b6" stroke="#000000" points="462.256,-68.1456 458.7559,-58.1456 455.256,-68.1456 462.256,-68.1456"/>
</g>
</g>
</svg>
